<mxfile host="app.diagrams.net" agent="Mozilla/5.0 (Windows NT 10.0; Win64; x64) AppleWebKit/537.36 (KHTML, like Gecko) Chrome/135.0.0.0 Safari/537.36 Edg/135.0.0.0" version="24.8.0">
  <diagram name="Page-1" id="UzMqxiD9EeuXosy3QI1D">
    <mxGraphModel dx="1212" dy="538" grid="1" gridSize="10" guides="1" tooltips="1" connect="1" arrows="1" fold="1" page="1" pageScale="1" pageWidth="850" pageHeight="1100" math="0" shadow="0">
      <root>
        <mxCell id="0" />
        <mxCell id="1" parent="0" />
        <mxCell id="bun6GYSzsRqWjhq-TVp2-1" value="" style="verticalLabelPosition=bottom;html=1;verticalAlign=top;align=center;strokeColor=none;fillColor=#00BEF2;shape=mxgraph.azure.sql_database_sql_azure;" vertex="1" parent="1">
          <mxGeometry x="70" y="80" width="80" height="90" as="geometry" />
        </mxCell>
        <mxCell id="bun6GYSzsRqWjhq-TVp2-2" value="" style="outlineConnect=0;dashed=0;verticalLabelPosition=bottom;verticalAlign=top;align=center;html=1;shape=mxgraph.aws3.vpn_gateway;fillColor=#F58534;gradientColor=none;" vertex="1" parent="1">
          <mxGeometry x="250" y="150" width="69" height="82" as="geometry" />
        </mxCell>
        <mxCell id="bun6GYSzsRqWjhq-TVp2-3" value="" style="image;aspect=fixed;html=1;points=[];align=center;fontSize=12;image=img/lib/azure2/analytics/Power_BI_Embedded.svg;" vertex="1" parent="1">
          <mxGeometry x="440" y="91" width="51" height="68" as="geometry" />
        </mxCell>
        <mxCell id="bun6GYSzsRqWjhq-TVp2-4" value="" style="endArrow=classic;html=1;rounded=0;" edge="1" parent="1" source="bun6GYSzsRqWjhq-TVp2-1" target="bun6GYSzsRqWjhq-TVp2-2">
          <mxGeometry width="50" height="50" relative="1" as="geometry">
            <mxPoint x="120" y="120" as="sourcePoint" />
            <mxPoint x="170" y="70" as="targetPoint" />
          </mxGeometry>
        </mxCell>
        <mxCell id="bun6GYSzsRqWjhq-TVp2-5" value="" style="endArrow=classic;html=1;rounded=0;" edge="1" parent="1" source="bun6GYSzsRqWjhq-TVp2-2" target="bun6GYSzsRqWjhq-TVp2-3">
          <mxGeometry width="50" height="50" relative="1" as="geometry">
            <mxPoint x="330" y="180" as="sourcePoint" />
            <mxPoint x="260" y="188" as="targetPoint" />
          </mxGeometry>
        </mxCell>
      </root>
    </mxGraphModel>
  </diagram>
</mxfile>
